<?xml version="1.0" encoding="utf-8"?>
<!-- Generator: Adobe Illustrator 23.0.3, SVG Export Plug-In . SVG Version: 6.00 Build 0)  -->
<svg version="1.1" id="Layer_1" xmlns="http://www.w3.org/2000/svg" xmlns:xlink="http://www.w3.org/1999/xlink" x="0px" y="0px"
	 viewBox="0 0 24 24" style="enable-background:new 0 0 24 24;" xml:space="preserve">
<path d="M1.3,16.46c1.86-1.98,3.16-3.4,3.57-3.94c0.04-0.05,0.18-0.24,0.44-0.37c0.38-0.19,0.96-0.24,1.28,0.03
	c0.53,0.45,0.24,1.17,0.34,1.65c0.08,0.4,0.46-0.55,1.18-1.21c0.38-0.35,1.08-0.98,1.99-0.98c0.13,0,0.99,0.02,1.28,0.54
	c0.27,0.49-0.16,1.06,0.07,1.25c0.22,0.17,0.67-0.31,1.21-0.37c1.09-0.13,1.69,1.95,2.32,1.78c0.12-0.03,0.22-0.13,0.44-0.64
	c0.37-0.87,0.56-1.31,0.64-2.15c0.27-2.85,1.85-6.06,2.9-7.34c0.1-0.12,0.27-0.46,0.64-0.74c0.16-0.12,0.83-0.64,1.75-0.5
	c0.11,0.02,0.98,0.16,1.45,0.88c0.42,0.64,0.28,1.39,0.1,2.22c-0.53,2.45-1.24,4.1-1.65,4.88c-0.57,1.09-1.34,2.83-1.95,3.67
	c-0.04,0.05-0.19,0.26-0.24,0.57c-0.01,0.06-0.07,0.57,0.2,0.77c0.25,0.19,0.66,0.03,1.08-0.13c0.93-0.37,1-0.75,1.35-0.71
	c0.63,0.08,1.1,1.4,1.01,2.42c-0.01,0.16-0.03,0.31-0.1,0.5c-0.33,0.89-1.37,1.2-1.75,1.31c-0.68,0.21-1.46,0.33-2.09,0.27
	c-0.88-0.08-1.15-0.29-1.55-0.67c-0.49-0.47-0.44-1.07-0.77-1.11c-0.25-0.03-0.37,0.3-0.77,0.57c-0.75,0.49-1.7,0.26-1.78,0.24
	c-1.24-0.32-1.36-1.73-2.02-1.68c-0.61,0.05-0.52,1.24-1.72,2.26c-0.28,0.24-1.2,1.02-2.22,0.77c-0.04-0.01-1.08-0.2-1.21-0.98
	c-0.08-0.45,0.67-2.24,0.64-2.26c-0.04-0.02-1.44,1.79-2.73,2.63C3.87,20.38,2.91,20.48,2.58,20c-0.45-0.64,0.51-2.09,0.34-2.19
	c-0.1-0.05-0.46,0.35-0.84,0.45c-0.44,0.12-1.02-0.25-1.11-0.85C0.89,16.9,1.24,16.52,1.3,16.46z"/>
</svg>
